<svg id="_x31__x2C_5" enable-background="new 0 0 24 24" height="512" viewBox="0 0 24 24" width="512" xmlns="http://www.w3.org/2000/svg"><path d="m21.25 23h-18.5c-1.517 0-2.75-1.233-2.75-2.75v-16.5c0-1.517 1.233-2.75 2.75-2.75h18.5c1.517 0 2.75 1.233 2.75 2.75v16.5c0 1.517-1.233 2.75-2.75 2.75zm-18.5-20.5c-.689 0-1.25.561-1.25 1.25v16.5c0 .689.561 1.25 1.25 1.25h18.5c.689 0 1.25-.561 1.25-1.25v-16.5c0-.689-.561-1.25-1.25-1.25z"/><path d="m23.25 6h-22.5c-.414 0-.75-.336-.75-.75s.336-.75.75-.75h22.5c.414 0 .75.336.75.75s-.336.75-.75.75z"/><path d="m15.75 12.25c-.184 0-.367-.066-.512-.202l-3.238-3.022-3.238 3.021c-.303.284-.777.267-1.06-.036s-.266-.777.037-1.06l3.75-3.5c.288-.27.735-.27 1.023 0l3.75 3.5c.303.282.319.757.037 1.06-.149.159-.348.239-.549.239z"/><path d="m15.75 20c-.195 0-.39-.075-.537-.227l-1.875-1.923c-.289-.297-.283-.771.014-1.061.295-.288.771-.284 1.061.014l1.875 1.923c.289.297.283.771-.014 1.061-.146.142-.335.213-.524.213z"/><path d="m8.25 20c-.192 0-.384-.073-.53-.22-.293-.293-.293-.768 0-1.061l3.53-3.53v-6.689c0-.414.336-.75.75-.75s.75.336.75.75v7c0 .199-.079.39-.22.53l-3.75 3.75c-.146.147-.338.22-.53.22z"/></svg>