<svg id="_x31__x2C_5" enable-background="new 0 0 24 24" height="512" viewBox="0 0 24 24" width="512" xmlns="http://www.w3.org/2000/svg"><path d="m13.25 7.5h-6.5c-.414 0-.75-.336-.75-.75s.336-.75.75-.75h6.5c.414 0 .75.336.75.75s-.336.75-.75.75z"/><path d="m13.25 11h-6.5c-.414 0-.75-.336-.75-.75s.336-.75.75-.75h6.5c.414 0 .75.336.75.75s-.336.75-.75.75z"/><path d="m7.26 14.5h-.51c-.414 0-.75-.336-.75-.75s.336-.75.75-.75h.51c.414 0 .75.336.75.75s-.336.75-.75.75z"/><path d="m9.441 19.98c-.015 0-.029 0-.044-.001-5.269-.304-9.397-4.687-9.397-9.979 0-5.514 4.486-10 10-10s10 4.486 10 10c0 .166-.001.332-.012.499-.026.414-.391.728-.797.7-.413-.027-.727-.384-.699-.797.009-.134.008-.268.008-.402 0-4.687-3.813-8.5-8.5-8.5s-8.5 3.813-8.5 8.5c0 4.498 3.507 8.223 7.983 8.481.414.023.729.378.706.792-.023.399-.353.707-.748.707z"/><path d="m15.025 20.343c-.192 0-.384-.073-.53-.22l-4.542-4.542c-.659-.66-.659-1.734.001-2.394s1.733-.659 2.394-.001l2.664 2.665c.293.293.293.768 0 1.061s-.768.293-1.061 0l-2.664-2.664c-.076-.075-.196-.076-.272.001-.076.076-.077.196-.001.272l4.542 4.542c.293.293.293.768 0 1.061-.147.146-.338.219-.531.219z"/><path d="m15.591 18.242c-.192 0-.384-.073-.53-.22l-1.109-1.11c-.32-.32-.497-.745-.497-1.197s.177-.876.497-1.197c.32-.32.745-.496 1.196-.497h.001c.452 0 .877.176 1.196.497l.444.443c.293.293.293.768 0 1.061-.292.292-.767.293-1.061 0l-.444-.444c-.064-.064-.208-.064-.272 0-.064.063-.064.208 0 .271l1.109 1.11c.293.293.293.768 0 1.061-.146.148-.339.222-.53.222z"/><path d="m17.368 17.353c-.192 0-.384-.073-.53-.22l-1.109-1.11c-.32-.319-.496-.744-.496-1.197 0-.451.176-.876.496-1.196.659-.66 1.734-.662 2.394-.001l.888.888c.293.293.293.768 0 1.061-.293.294-.768.292-1.061 0l-.888-.888c-.076-.076-.196-.076-.272.001-.063.064-.064.208-.001.271l1.11 1.111c.293.293.293.768 0 1.061-.147.145-.339.219-.531.219z"/><path d="m22.478 17.127c-.191 0-.383-.073-.529-.218l-2.665-2.666c-.076-.075-.196-.076-.272.001s-.077.196-.001.272l.666.666c.293.293.293.768 0 1.061s-.768.293-1.061 0l-.666-.666c-.66-.661-.659-1.734.001-2.394.659-.659 1.733-.659 2.393-.001l2.664 2.664c.293.292.295.767.002 1.061-.148.147-.34.22-.532.22z"/><path d="m18.736 23.996c-1 0-2.151-.313-3.471-.94-1.371-.652-2.021-.626-2.448-.611-.382.014-.857.032-1.313-.423-.449-.449-.603-1.345.444-2.393.9-.9 2.229-.92 3.187-.777.409.061.692.442.632.852-.062.411-.44.692-.853.632-.503-.074-1.423-.128-1.905.354-.101.101-.173.187-.224.256.543-.021 1.45-.04 3.124.756 2.797 1.329 3.896.716 4.482.14l.885-.885c1.091-1.09 1.86-2.857.456-4.261l-2.45-2.451c-.076-.075-.196-.076-.272.001s-.077.196-.001.272c.293.293.293.768 0 1.061s-.768.292-1.061-.001c-.66-.66-.659-1.733.001-2.393.659-.659 1.733-.659 2.393-.001l2.442 2.443c1.781 1.782 1.6 4.345-.442 6.387l-.894.894c-.737.725-1.636 1.088-2.712 1.088z"/></svg>