<svg id="_x31__x2C_5" enable-background="new 0 0 24 24" height="512" viewBox="0 0 24 24" width="512" xmlns="http://www.w3.org/2000/svg"><path d="m17.348 14h-11.587c-2.625 0-4.761-2.019-4.761-4.5 0-2.307 1.846-4.213 4.214-4.471.745-2.906 3.554-5.029 6.786-5.029 2.543 0 4.894 1.317 6.109 3.389 2.775.343 4.891 2.588 4.891 5.278 0 2.94-2.536 5.333-5.652 5.333zm-5.348-12.5c-2.718 0-5.051 1.875-5.426 4.362-.056.367-.371.638-.742.638-1.869 0-3.332 1.346-3.332 3s1.463 3 3.261 3h11.587c2.29 0 4.152-1.72 4.152-3.833 0-2.027-1.711-3.704-3.896-3.817-.27-.014-.512-.172-.632-.414-.89-1.784-2.842-2.936-4.972-2.936z"/><path d="m14.25 24h-4.5c-.965 0-1.75-.785-1.75-1.75v-3.5c0-.965.785-1.75 1.75-1.75h4.5c.965 0 1.75.785 1.75 1.75v3.5c0 .965-.785 1.75-1.75 1.75zm-4.5-5.5c-.138 0-.25.112-.25.25v3.5c0 .138.112.25.25.25h4.5c.138 0 .25-.112.25-.25v-3.5c0-.138-.112-.25-.25-.25z"/><path d="m12 18c-.414 0-.75-.336-.75-.75v-4c0-.414.336-.75.75-.75s.75.336.75.75v4c0 .414-.336.75-.75.75z"/><path d="m23.25 21.5h-7.75c-.414 0-.75-.336-.75-.75s.336-.75.75-.75h7.75c.414 0 .75.336.75.75s-.336.75-.75.75z"/><path d="m8.5 21.5h-7.75c-.414 0-.75-.336-.75-.75s.336-.75.75-.75h7.75c.414 0 .75.336.75.75s-.336.75-.75.75z"/></svg>