<svg id="_x31__x2C_5" enable-background="new 0 0 24 24" height="512" viewBox="0 0 24 24" width="512" xmlns="http://www.w3.org/2000/svg"><path d="m22.25 20h-20.5c-.965 0-1.75-.785-1.75-1.75v-12.5c0-.965.785-1.75 1.75-1.75h9.55c.414 0 .75.336.75.75s-.336.75-.75.75h-9.55c-.136 0-.25.114-.25.25v12.5c0 .136.114.25.25.25h20.5c.136 0 .25-.114.25-.25v-6.49c0-.414.336-.75.75-.75s.75.336.75.75v6.49c0 .965-.785 1.75-1.75 1.75z"/><path d="m16.25 24h-8.5c-.414 0-.75-.336-.75-.75s.336-.75.75-.75h8.5c.414 0 .75.336.75.75s-.336.75-.75.75z"/><path d="m12 24c-.414 0-.75-.336-.75-.75v-4c0-.414.336-.75.75-.75s.75.336.75.75v4c0 .414-.336.75-.75.75z"/><path d="m19 9c-1.93 0-3.5-1.57-3.5-3.5s1.57-3.5 3.5-3.5 3.5 1.57 3.5 3.5-1.57 3.5-3.5 3.5zm0-5.5c-1.103 0-2 .897-2 2s.897 2 2 2 2-.897 2-2-.897-2-2-2z"/><path d="m19 11c-.414 0-.75-.336-.75-.75v-2c0-.414.336-.75.75-.75s.75.336.75.75v2c0 .414-.336.75-.75.75z"/><path d="m19 3.5c-.414 0-.75-.336-.75-.75v-2c0-.414.336-.75.75-.75s.75.336.75.75v2c0 .414-.336.75-.75.75z"/><path d="m21.381 4.88c-.269 0-.527-.144-.662-.396-.195-.365-.058-.819.308-1.015l1.87-1c.366-.195.82-.058 1.015.308.195.365.058.819-.308 1.015l-1.87 1c-.113.06-.234.088-.353.088z"/><path d="m14.751 8.62c-.269 0-.527-.144-.662-.396-.195-.365-.058-.819.308-1.015l1.87-1c.367-.195.821-.058 1.015.308.195.365.058.819-.308 1.015l-1.87 1c-.113.06-.234.088-.353.088z"/><path d="m16.619 4.88c-.119 0-.24-.028-.353-.089l-1.87-1c-.365-.195-.503-.649-.308-1.015.194-.365.65-.504 1.015-.308l1.87 1c.365.195.503.649.308 1.015-.135.253-.393.397-.662.397z"/><path d="m23.249 8.62c-.119 0-.24-.028-.353-.089l-1.87-1c-.365-.195-.503-.649-.308-1.015s.649-.504 1.015-.308l1.87 1c.365.195.503.649.308 1.015-.135.254-.393.397-.662.397z"/><path d="m11.739 16h-5.934c-1.547 0-2.805-1.211-2.805-2.7 0-1.302.961-2.391 2.236-2.645.504-1.549 2.026-2.655 3.764-2.655 1.371 0 2.645.691 3.354 1.793 1.514.273 2.646 1.552 2.646 3.073 0 1.728-1.463 3.134-3.261 3.134zm-2.739-6.5c-1.212 0-2.251.843-2.417 1.96-.055.367-.37.64-.742.64-.756 0-1.341.538-1.341 1.2s.585 1.2 1.305 1.2h5.935c.971 0 1.761-.732 1.761-1.634 0-.862-.725-1.576-1.649-1.625-.271-.015-.514-.174-.634-.418-.397-.803-1.267-1.323-2.218-1.323z"/></svg>