<svg id="_x31__x2C_5" enable-background="new 0 0 24 24" height="512" viewBox="0 0 24 24" width="512" xmlns="http://www.w3.org/2000/svg"><path d="m22.25 20h-20.5c-.965 0-1.75-.785-1.75-1.75v-12.5c0-.965.785-1.75 1.75-1.75h1.5c.414 0 .75.336.75.75s-.336.75-.75.75h-1.5c-.136 0-.25.114-.25.25v12.5c0 .136.114.25.25.25h20.5c.136 0 .25-.114.25-.25v-12.5c0-.136-.114-.25-.25-.25h-3.5c-.414 0-.75-.336-.75-.75s.336-.75.75-.75h3.5c.965 0 1.75.785 1.75 1.75v12.5c0 .965-.785 1.75-1.75 1.75z"/><path d="m16.25 24h-8.5c-.414 0-.75-.336-.75-.75s.336-.75.75-.75h8.5c.414 0 .75.336.75.75s-.336.75-.75.75z"/><path d="m12 24c-.414 0-.75-.336-.75-.75v-4c0-.414.336-.75.75-.75s.75.336.75.75v4c0 .414-.336.75-.75.75z"/><path d="m11.742 9.4c-.805 0-1.605-.312-2.217-.926l-3.107-3.125c-.591-.586-.918-1.374-.918-2.215s.327-1.629.922-2.219c1.143-1.169 3.237-1.186 4.423.003l.533.535c.292.293.292.769-.002 1.061-.294.291-.769.293-1.061-.002l-.533-.535c-.613-.616-1.702-.615-2.296-.005-.316.314-.486.724-.486 1.162s.17.848.479 1.154l3.11 3.129c.595.596 1.532.645 2.184.11.319-.262.792-.216 1.056.104.263.32.216.792-.104 1.056-.582.477-1.284.713-1.983.713z"/><path d="m15.368 13c-.84 0-1.627-.328-2.216-.926l-.512-.514c-.292-.293-.292-.769.002-1.061.294-.291.769-.293 1.061.002l.515.517c.615.623 1.688.62 2.298.003.314-.312.484-.722.484-1.16s-.17-.848-.479-1.154l-3.11-3.129c-.573-.576-1.568-.621-2.181-.113-.317.265-.792.221-1.056-.099-.264-.319-.22-.792.099-1.055 1.187-.983 3.098-.895 4.201.21l3.107 3.126c.592.585.919 1.374.919 2.214s-.327 1.629-.922 2.219c-.583.592-1.37.92-2.21.92z"/></svg>