<svg id="_x31__x2C_5" enable-background="new 0 0 24 24" height="512" viewBox="0 0 24 24" width="512" xmlns="http://www.w3.org/2000/svg"><path d="m22.25 18h-20.5c-.965 0-1.75-.785-1.75-1.75v-12.5c0-.965.785-1.75 1.75-1.75h20.5c.965 0 1.75.785 1.75 1.75v12.5c0 .965-.785 1.75-1.75 1.75zm-20.5-14.5c-.138 0-.25.112-.25.25v12.5c0 .138.112.25.25.25h20.5c.138 0 .25-.112.25-.25v-12.5c0-.138-.112-.25-.25-.25z"/><path d="m16.25 22h-8.5c-.414 0-.75-.336-.75-.75s.336-.75.75-.75h8.5c.414 0 .75.336.75.75s-.336.75-.75.75z"/><path d="m12 22c-.414 0-.75-.336-.75-.75v-4c0-.414.336-.75.75-.75s.75.336.75.75v4c0 .414-.336.75-.75.75z"/><path d="m19.75 10.75h-2.5c-.414 0-.75-.336-.75-.75s.336-.75.75-.75h2.5c.414 0 .75.336.75.75s-.336.75-.75.75z"/><path d="m19.75 13h-2c-.689 0-1.25-.561-1.25-1.25v-3.5c0-.689.561-1.25 1.25-1.25h2c.414 0 .75.336.75.75s-.336.75-.75.75h-1.75v3h1.75c.414 0 .75.336.75.75s-.336.75-.75.75z"/><path d="m9.75 13c-.414 0-.75-.336-.75-.75v-4.5c0-.414.336-.75.75-.75s.75.336.75.75v4.5c0 .414-.336.75-.75.75z"/><path d="m7.25 13h-2.5c-.414 0-.75-.336-.75-.75v-4.5c0-.414.336-.75.75-.75s.75.336.75.75v3.75h1.75c.414 0 .75.336.75.75s-.336.75-.75.75z"/><path d="m13.5 13c-.337 0-.632-.225-.723-.549l-1.25-4.5c-.111-.399.123-.813.522-.924.397-.111.813.123.923.521l.528 1.9.527-1.899c.111-.398.525-.633.923-.521.399.111.633.524.522.924l-1.25 4.5c-.09.323-.385.548-.722.548z"/></svg>