<svg id="_x31__x2C_5" enable-background="new 0 0 24 24" height="512" viewBox="0 0 24 24" width="512" xmlns="http://www.w3.org/2000/svg"><path d="m5.75 18c-.414 0-.75-.336-.75-.75v-14.5c0-.414.336-.75.75-.75s.75.336.75.75v14.5c0 .414-.336.75-.75.75z"/><path d="m23.25 8.5h-17.5c-.414 0-.75-.336-.75-.75s.336-.75.75-.75h17.5c.414 0 .75.336.75.75s-.336.75-.75.75z"/><path d="m23.25 13.5h-17.5c-.414 0-.75-.336-.75-.75s.336-.75.75-.75h17.5c.414 0 .75.336.75.75s-.336.75-.75.75z"/><path d="m22.25 18h-20.5c-.965 0-1.75-.785-1.75-1.75v-12.5c0-.965.785-1.75 1.75-1.75h20.5c.965 0 1.75.785 1.75 1.75v12.5c0 .965-.785 1.75-1.75 1.75zm-20.5-14.5c-.138 0-.25.112-.25.25v12.5c0 .138.112.25.25.25h20.5c.138 0 .25-.112.25-.25v-12.5c0-.138-.112-.25-.25-.25z"/><path d="m16.25 22h-8.5c-.414 0-.75-.336-.75-.75s.336-.75.75-.75h8.5c.414 0 .75.336.75.75s-.336.75-.75.75z"/><path d="m12 22c-.414 0-.75-.336-.75-.75v-4c0-.414.336-.75.75-.75s.75.336.75.75v4c0 .414-.336.75-.75.75z"/></svg>