<svg id="_x31__x2C_5" enable-background="new 0 0 24 24" height="512" viewBox="0 0 24 24" width="512" xmlns="http://www.w3.org/2000/svg"><path d="m15.25 9.5h-6.5c-.965 0-1.75-.785-1.75-1.75v-3c0-.965.785-1.75 1.75-1.75h6.5c.965 0 1.75.785 1.75 1.75v3c0 .965-.785 1.75-1.75 1.75zm-6.5-5c-.138 0-.25.112-.25.25v3c0 .138.112.25.25.25h6.5c.138 0 .25-.112.25-.25v-3c0-.138-.112-.25-.25-.25z"/><path d="m13.25 2.5c-.164 0-.33-.054-.468-.164l-.782-.625-.781.625c-.324.259-.796.205-1.054-.117-.259-.323-.207-.796.117-1.055l1.25-1c.274-.219.663-.219.938 0l1.25 1c.323.259.375.731.117 1.055-.149.184-.367.281-.587.281z"/><path d="m12 13c-.166 0-.332-.055-.469-.164l-1.25-1c-.323-.259-.375-.731-.117-1.055.258-.322.729-.376 1.054-.117l.782.625.781-.625c.326-.258.796-.204 1.054.117.259.323.207.796-.117 1.055l-1.25 1c-.136.109-.302.164-.468.164z"/><path d="m22.25 20h-20.5c-.965 0-1.75-.785-1.75-1.75v-12.5c0-.965.785-1.75 1.75-1.75h3c.414 0 .75.336.75.75s-.336.75-.75.75h-3c-.136 0-.25.114-.25.25v12.5c0 .136.114.25.25.25h20.5c.136 0 .25-.114.25-.25v-12.5c0-.136-.114-.25-.25-.25h-3c-.414 0-.75-.336-.75-.75s.336-.75.75-.75h3c.965 0 1.75.785 1.75 1.75v12.5c0 .965-.785 1.75-1.75 1.75z"/><path d="m16.25 24h-8.5c-.414 0-.75-.336-.75-.75s.336-.75.75-.75h8.5c.414 0 .75.336.75.75s-.336.75-.75.75z"/><path d="m12 24c-.414 0-.75-.336-.75-.75v-4c0-.414.336-.75.75-.75s.75.336.75.75v4c0 .414-.336.75-.75.75z"/></svg>