<svg id="_x31__x2C_5" enable-background="new 0 0 24 24" height="512" viewBox="0 0 24 24" width="512" xmlns="http://www.w3.org/2000/svg"><path d="m22.25 20h-20.5c-.965 0-1.75-.785-1.75-1.75v-12.5c0-.965.785-1.75 1.75-1.75h1.51c.414 0 .75.336.75.75s-.336.75-.75.75h-1.51c-.136 0-.25.114-.25.25v12.5c0 .136.114.25.25.25h20.5c.136 0 .25-.114.25-.25v-12.5c0-.136-.114-.25-.25-.25h-1.51c-.414 0-.75-.336-.75-.75s.336-.75.75-.75h1.51c.965 0 1.75.785 1.75 1.75v12.5c0 .965-.785 1.75-1.75 1.75z"/><path d="m16.25 24h-8.5c-.414 0-.75-.336-.75-.75s.336-.75.75-.75h8.5c.414 0 .75.336.75.75s-.336.75-.75.75z"/><path d="m12 24c-.414 0-.75-.336-.75-.75v-4c0-.414.336-.75.75-.75s.75.336.75.75v4c0 .414-.336.75-.75.75z"/><path d="m12 13c-.414 0-.75-.336-.75-.75v-5.439l-5.03-5.031c-.293-.293-.293-.768 0-1.061s.768-.293 1.061 0l5.25 5.25c.141.141.22.331.22.53v5.75c-.001.415-.337.751-.751.751z"/><path d="m6.25 5.333c-.414 0-.75-.336-.75-.75v-3.833c0-.414.336-.75.75-.75h3.833c.414 0 .75.336.75.75s-.336.75-.75.75h-3.083v3.083c0 .414-.336.75-.75.75z"/><path d="m14 5.25c-.192 0-.384-.073-.53-.22-.293-.293-.293-.768 0-1.061l3.25-3.25c.293-.293.768-.293 1.061 0s.293.768 0 1.061l-3.25 3.25c-.147.147-.339.22-.531.22z"/><path d="m17.75 5.333c-.414 0-.75-.336-.75-.75v-3.083h-3.083c-.414 0-.75-.336-.75-.75s.335-.75.75-.75h3.833c.414 0 .75.336.75.75v3.833c0 .414-.336.75-.75.75z"/></svg>