<svg id="_x31__x2C_5" enable-background="new 0 0 24 24" height="512" viewBox="0 0 24 24" width="512" xmlns="http://www.w3.org/2000/svg"><path d="m22.25 21h-20.5c-.965 0-1.75-.785-1.75-1.75v-13.5c0-.965.785-1.75 1.75-1.75.414 0 .785.336.785.75s-.301.75-.715.75c-.206 0-.32.114-.32.25v13.5c0 .136.114.25.25.25h20.5c.136 0 .25-.114.25-.25v-13.5c0-.136-.114-.25-.25-.25-.414 0-.785-.336-.785-.75s.301-.75.715-.75h.07c.965 0 1.75.785 1.75 1.75v13.5c0 .965-.785 1.75-1.75 1.75z"/><path d="m23.25 17.5h-22.5c-.414 0-.75-.336-.75-.75s.336-.75.75-.75h22.5c.414 0 .75.336.75.75s-.336.75-.75.75z"/><path d="m15.25 24h-6.5c-.303 0-.577-.183-.693-.463s-.052-.603.163-.817c1.041-1.041 1.265-2.552 1.267-2.567.055-.411.43-.699.841-.646.411.054.7.431.646.841-.008.059-.147 1.066-.744 2.152h3.523c-.591-1.081-.738-2.088-.746-2.147-.057-.41.229-.789.64-.846.412-.056.789.229.846.638.007.045.232 1.469 1.184 2.488.195.136.323.361.323.617 0 .414-.336.75-.75.75z"/><path d="m17.5 5c-1.378 0-2.5-1.122-2.5-2.5s1.122-2.5 2.5-2.5 2.5 1.122 2.5 2.5-1.122 2.5-2.5 2.5zm0-3.5c-.551 0-1 .449-1 1s.449 1 1 1 1-.449 1-1-.449-1-1-1z"/><path d="m7.25 12h-1.5c-.965 0-1.75-.785-1.75-1.75v-1.5c0-.965.785-1.75 1.75-1.75h1.5c.965 0 1.75.785 1.75 1.75v1.5c0 .965-.785 1.75-1.75 1.75zm-1.5-3.5c-.138 0-.25.112-.25.25v1.5c0 .138.112.25.25.25h1.5c.138 0 .25-.112.25-.25v-1.5c0-.138-.112-.25-.25-.25z"/><path d="m6.5 5c-1.378 0-2.5-1.122-2.5-2.5s1.122-2.5 2.5-2.5 2.5 1.122 2.5 2.5-1.122 2.5-2.5 2.5zm0-3.5c-.551 0-1 .449-1 1s.449 1 1 1 1-.449 1-1-.449-1-1-1z"/><path d="m18.25 12h-1.5c-.965 0-1.75-.785-1.75-1.75v-1.5c0-.965.785-1.75 1.75-1.75h1.5c.965 0 1.75.785 1.75 1.75v1.5c0 .965-.785 1.75-1.75 1.75zm-1.5-3.5c-.138 0-.25.112-.25.25v1.5c0 .138.112.25.25.25h1.5c.138 0 .25-.112.25-.25v-1.5c0-.138-.112-.25-.25-.25z"/><path d="m15.5 3.25h-7c-.414 0-.75-.336-.75-.75s.336-.75.75-.75h7c.414 0 .75.336.75.75s-.336.75-.75.75z"/><path d="m12 10.25c-.414 0-.75-.336-.75-.75v-7c0-.414.336-.75.75-.75s.75.336.75.75v7c0 .414-.336.75-.75.75z"/><path d="m15.5 10.25h-7c-.414 0-.75-.336-.75-.75s.336-.75.75-.75h7c.414 0 .75.336.75.75s-.336.75-.75.75z"/></svg>