<svg id="_x31__x2C_5" enable-background="new 0 0 24 24" height="512" viewBox="0 0 24 24" width="512" xmlns="http://www.w3.org/2000/svg"><path d="m22.25 21h-20.5c-.965 0-1.75-.785-1.75-1.75v-13.5c0-.965.785-1.75 1.75-1.75h9.55c.414 0 .75.336.75.75s-.336.75-.75.75h-9.55c-.136 0-.25.114-.25.25v13.5c0 .136.114.25.25.25h20.5c.136 0 .25-.114.25-.25v-7.49c0-.414.336-.75.75-.75s.75.336.75.75v7.49c0 .965-.785 1.75-1.75 1.75z"/><path d="m23.25 17.5h-22.5c-.414 0-.75-.336-.75-.75s.336-.75.75-.75h22.5c.414 0 .75.336.75.75s-.336.75-.75.75z"/><path d="m15.25 24h-6.5c-.304 0-.577-.183-.693-.463-.115-.28-.052-.603.163-.817 1.046-1.046 1.266-2.555 1.268-2.57.056-.409.427-.69.844-.642.409.056.697.431.643.84-.007.059-.147 1.066-.743 2.152h3.522c-.591-1.08-.737-2.088-.746-2.146-.057-.41.229-.789.64-.847.417-.055.788.229.846.639.007.044.232 1.469 1.186 2.488.193.136.32.361.32.616 0 .414-.336.75-.75.75z"/><path d="m19 9c-1.93 0-3.5-1.57-3.5-3.5s1.57-3.5 3.5-3.5 3.5 1.57 3.5 3.5-1.57 3.5-3.5 3.5zm0-5.5c-1.103 0-2 .897-2 2s.897 2 2 2 2-.897 2-2-.897-2-2-2z"/><path d="m19 11c-.414 0-.75-.336-.75-.75v-2c0-.414.336-.75.75-.75s.75.336.75.75v2c0 .414-.336.75-.75.75z"/><path d="m19 3.5c-.414 0-.75-.336-.75-.75v-2c0-.414.336-.75.75-.75s.75.336.75.75v2c0 .414-.336.75-.75.75z"/><path d="m21.381 4.88c-.269 0-.527-.144-.662-.396-.195-.365-.058-.819.308-1.015l1.87-1c.366-.195.82-.058 1.015.308.195.365.058.819-.308 1.015l-1.87 1c-.113.06-.234.088-.353.088z"/><path d="m14.751 8.62c-.269 0-.527-.144-.662-.396-.195-.365-.058-.819.308-1.015l1.87-1c.365-.195.82-.058 1.015.308.195.365.058.819-.308 1.015l-1.87 1c-.113.06-.234.088-.353.088z"/><path d="m16.619 4.88c-.119 0-.24-.028-.353-.089l-1.87-1c-.365-.195-.503-.649-.308-1.015.194-.365.648-.504 1.015-.308l1.87 1c.365.195.503.649.308 1.015-.135.253-.393.397-.662.397z"/><path d="m23.249 8.62c-.119 0-.24-.028-.353-.089l-1.87-1c-.365-.195-.503-.649-.308-1.015.194-.365.649-.504 1.015-.308l1.87 1c.365.195.503.649.308 1.015-.135.254-.393.397-.662.397z"/><path d="m11.74 15h-5.94c-1.544 0-2.8-1.211-2.8-2.7 0-1.303.962-2.393 2.236-2.646.505-1.548 2.027-2.654 3.764-2.654 1.106 0 2.165.446 2.904 1.224.285.3.273.774-.027 1.061-.302.284-.775.272-1.061-.027-.457-.482-1.119-.758-1.816-.758-1.212 0-2.251.843-2.418 1.961-.056.367-.371.639-.742.639-.757 0-1.34.538-1.34 1.2s.583 1.2 1.3 1.2h5.94c.971 0 1.76-.731 1.76-1.63 0-.135-.014-.244-.042-.346-.112-.398.119-.813.518-.926.4-.113.813.12.926.518.066.235.098.482.098.754 0 1.726-1.462 3.13-3.26 3.13z"/></svg>