<svg id="_x31__x2C_5" enable-background="new 0 0 24 24" height="512" viewBox="0 0 24 24" width="512" xmlns="http://www.w3.org/2000/svg"><path d="m19.25 14h-14.5c-.414 0-.75-.336-.75-.75s.336-.75.75-.75h14.5c.414 0 .75.336.75.75s-.336.75-.75.75z"/><path d="m11.72 10h-6.97c-.414 0-.75-.336-.75-.75s.336-.75.75-.75h6.97c.414 0 .75.336.75.75s-.336.75-.75.75z"/><path d="m22.25 21h-20.5c-.965 0-1.75-.785-1.75-1.75v-13.5c0-.965.785-1.75 1.75-1.75h9.04c.414 0 .75.336.75.75s-.336.75-.75.75h-9.04c-.136 0-.25.114-.25.25v13.5c0 .136.114.25.25.25h20.5c.136 0 .25-.114.25-.25v-7.63c0-.414.336-.75.75-.75s.75.336.75.75v7.63c0 .965-.785 1.75-1.75 1.75z"/><path d="m23.25 17.5h-22.5c-.414 0-.75-.336-.75-.75s.336-.75.75-.75h22.5c.414 0 .75.336.75.75s-.336.75-.75.75z"/><path d="m15.25 24h-6.5c-.303 0-.577-.183-.693-.463s-.052-.602.163-.817c1.041-1.041 1.265-2.553 1.267-2.567.054-.411.432-.705.841-.646.411.054.7.431.646.841-.008.059-.147 1.066-.744 2.152h3.523c-.591-1.08-.738-2.088-.746-2.147-.057-.41.229-.788.64-.846.414-.055.788.229.846.639.007.045.232 1.469 1.184 2.487.195.136.323.361.323.617 0 .414-.336.75-.75.75z"/><path d="m18.5 11c-3.033 0-5.5-2.468-5.5-5.5s2.467-5.5 5.5-5.5 5.5 2.468 5.5 5.5-2.467 5.5-5.5 5.5zm0-9.5c-2.206 0-4 1.794-4 4s1.794 4 4 4 4-1.794 4-4-1.794-4-4-4z"/><path d="m18.023 7.5c-.196 0-.385-.077-.525-.215l-1.273-1.25c-.295-.29-.3-.765-.01-1.061.291-.295.766-.3 1.061-.01l.711.698 1.703-1.912c.275-.309.749-.338 1.059-.061.309.275.336.749.061 1.059l-2.227 2.5c-.137.153-.33.244-.535.251-.008.001-.017.001-.025.001z"/></svg>