<svg id="_x31__x2C_5" enable-background="new 0 0 24 24" height="512" viewBox="0 0 24 24" width="512" xmlns="http://www.w3.org/2000/svg"><path d="m22.25 21h-20.5c-.965 0-1.75-.785-1.75-1.75v-13.5c0-.965.785-1.75 1.75-1.75h1.5c.414 0 .75.336.75.75s-.336.75-.75.75h-1.5c-.136 0-.25.114-.25.25v13.5c0 .136.114.25.25.25h20.5c.136 0 .25-.114.25-.25v-13.5c0-.136-.114-.25-.25-.25h-3.5c-.414 0-.75-.336-.75-.75s.336-.75.75-.75h3.5c.965 0 1.75.785 1.75 1.75v13.5c0 .965-.785 1.75-1.75 1.75z"/><path d="m23.25 17.5h-22.5c-.414 0-.75-.336-.75-.75s.336-.75.75-.75h22.5c.414 0 .75.336.75.75s-.336.75-.75.75z"/><path d="m15.25 24h-6.5c-.303 0-.577-.183-.693-.463s-.052-.602.163-.817c1.041-1.041 1.265-2.553 1.267-2.567.054-.411.432-.707.841-.646.411.054.7.431.646.841-.008.059-.147 1.066-.744 2.152h3.523c-.591-1.08-.738-2.088-.746-2.147-.057-.41.229-.788.64-.846.414-.057.788.229.846.639.007.045.232 1.469 1.184 2.487.195.136.323.361.323.617 0 .414-.336.75-.75.75z"/><path d="m11.742 9.399c-.804 0-1.605-.311-2.217-.925l-3.107-3.125c-.591-.586-.918-1.374-.918-2.215s.327-1.629.922-2.219c1.145-1.17 3.238-1.185 4.422.003l.534.535c.292.293.292.768-.001 1.061-.294.291-.769.293-1.061-.002l-.534-.535c-.613-.616-1.7-.613-2.296-.005-.316.314-.486.724-.486 1.162s.17.848.479 1.154l3.109 3.129c.597.596 1.536.646 2.184.11.321-.262.793-.216 1.056.104s.216.792-.104 1.056c-.581.477-1.283.712-1.982.712z"/><path d="m15.368 13c-.839 0-1.626-.328-2.215-.926l-.512-.514c-.292-.293-.292-.769.002-1.061.294-.291.769-.293 1.061.002l.515.517c.615.623 1.688.62 2.298.003.313-.312.483-.722.483-1.16s-.17-.848-.479-1.154l-3.109-3.129c-.306-.306-.717-.476-1.155-.476-.269 0-.666.063-1.026.362-.32.264-.792.22-1.056-.099-.265-.317-.221-.79.098-1.054 1.185-.982 3.098-.895 4.202.209l3.107 3.127c.591.585.918 1.374.918 2.214s-.327 1.629-.922 2.219c-.583.592-1.37.92-2.21.92z"/></svg>