<svg id="_x31__x2C_5" enable-background="new 0 0 24 24" height="512" viewBox="0 0 24 24" width="512" xmlns="http://www.w3.org/2000/svg"><path d="m15.75 5.346c-.195 0-.39-.075-.537-.227l-3.213-3.295-3.213 3.295c-.29.297-.764.303-1.061.014s-.302-.764-.013-1.061l3.75-3.846c.283-.289.791-.289 1.074 0l3.75 3.846c.289.297.283.771-.014 1.061-.145.141-.335.213-.523.213z"/><path d="m15.75 14c-.195 0-.39-.075-.537-.227l-1.875-1.923c-.289-.297-.283-.771.014-1.061.297-.288.771-.282 1.061.014l1.875 1.923c.289.297.283.771-.014 1.061-.146.142-.336.213-.524.213z"/><path d="m8.25 14c-.192 0-.384-.073-.53-.22-.293-.293-.293-.768 0-1.061l3.53-3.53v-8.189c0-.414.336-.75.75-.75s.75.336.75.75v8.5c0 .199-.079.39-.22.53l-3.75 3.75c-.146.147-.338.22-.53.22z"/><path d="m22.25 21h-20.5c-.965 0-1.75-.785-1.75-1.75v-13.5c0-.965.785-1.75 1.75-1.75h3.51c.414 0 .75.336.75.75s-.336.75-.75.75h-3.51c-.136 0-.25.114-.25.25v13.5c0 .136.114.25.25.25h20.5c.136 0 .25-.114.25-.25v-13.5c0-.136-.114-.25-.25-.25h-3.51c-.414 0-.75-.336-.75-.75s.336-.75.75-.75h3.51c.965 0 1.75.785 1.75 1.75v13.5c0 .965-.785 1.75-1.75 1.75z"/><path d="m23.25 17.5h-22.5c-.414 0-.75-.336-.75-.75s.336-.75.75-.75h22.5c.414 0 .75.336.75.75s-.336.75-.75.75z"/><path d="m15.25 24h-6.5c-.304 0-.577-.183-.693-.463-.115-.28-.052-.603.163-.817 1.046-1.046 1.266-2.555 1.268-2.57.056-.409.427-.69.844-.642.409.056.697.431.643.84-.007.059-.147 1.066-.743 2.152h3.522c-.591-1.08-.737-2.088-.746-2.146-.057-.41.229-.789.64-.847.415-.058.788.229.846.639.007.044.232 1.469 1.186 2.488.193.136.32.361.32.616 0 .414-.336.75-.75.75z"/></svg>