<svg id="_x31__x2C_5" enable-background="new 0 0 24 24" height="512" viewBox="0 0 24 24" width="512" xmlns="http://www.w3.org/2000/svg"><path d="m14.75 12h-5.5c-.965 0-1.75-.785-1.75-1.75v-8.5c0-.965.785-1.75 1.75-1.75h5.5c.965 0 1.75.785 1.75 1.75v8.5c0 .965-.785 1.75-1.75 1.75zm-5.5-10.5c-.138 0-.25.112-.25.25v8.5c0 .138.112.25.25.25h5.5c.138 0 .25-.112.25-.25v-8.5c0-.138-.112-.25-.25-.25z"/><path d="m5.25 9c-.242 0-.48-.117-.625-.334l-1.5-2.25c-.168-.252-.168-.58 0-.832l1.5-2.25c.23-.345.695-.437 1.04-.208s.438.695.208 1.04l-1.222 1.834 1.223 1.834c.23.345.137.811-.208 1.04-.128.085-.272.126-.416.126z"/><path d="m18.75 9c-.143 0-.288-.041-.416-.126-.345-.229-.438-.695-.208-1.04l1.223-1.834-1.223-1.834c-.23-.345-.137-.811.208-1.04.344-.229.809-.137 1.04.208l1.5 2.25c.168.252.168.58 0 .832l-1.5 2.25c-.145.217-.382.334-.624.334z"/><path d="m22.25 21h-20.5c-.965 0-1.75-.785-1.75-1.75v-13.5c0-.187.032-.374.095-.557.008-.037.02-.074.034-.109.114-.285.394-.474.701-.474.414 0 .75.336.75.75v.003c.001.1-.018.2-.058.297l-.022.34v13.25c0 .136.114.25.25.25h20.5c.136 0 .25-.114.25-.25v-13.5c-.024-.058-.041-.119-.052-.185-.018-.065-.028-.133-.028-.205 0-.414.336-.75.75-.75.307 0 .587.188.701.474.014.035.026.072.034.109.063.183.095.37.095.557v13.5c0 .965-.785 1.75-1.75 1.75z"/><path d="m23.25 17.5h-22.5c-.414 0-.75-.336-.75-.75s.336-.75.75-.75h22.5c.414 0 .75.336.75.75s-.336.75-.75.75z"/><path d="m15.25 24h-6.5c-.303 0-.577-.183-.693-.463s-.052-.602.163-.817c1.041-1.041 1.265-2.553 1.267-2.567.054-.411.432-.704.841-.646.411.054.7.431.646.841-.008.059-.147 1.066-.744 2.152h3.523c-.591-1.08-.738-2.088-.746-2.147-.057-.41.229-.788.64-.846.414-.06.788.229.846.639.007.045.232 1.469 1.184 2.487.195.136.323.361.323.617 0 .414-.336.75-.75.75z"/></svg>