<svg id="_x31__x2C_5" enable-background="new 0 0 24 24" height="512" viewBox="0 0 24 24" width="512" xmlns="http://www.w3.org/2000/svg"><path d="m22.25 21h-20.5c-.965 0-1.75-.785-1.75-1.75v-13.5c0-.965.785-1.75 1.75-1.75h1c.414 0 .75.336.75.75s-.336.75-.75.75h-1c-.136 0-.25.114-.25.25v13.5c0 .136.114.25.25.25h20.5c.136 0 .25-.114.25-.25v-13.5c0-.136-.114-.25-.25-.25h-1c-.414 0-.75-.336-.75-.75s.336-.75.75-.75h1c.965 0 1.75.785 1.75 1.75v13.5c0 .965-.785 1.75-1.75 1.75z"/><path d="m23.25 17.5h-22.5c-.414 0-.75-.336-.75-.75s.336-.75.75-.75h22.5c.414 0 .75.336.75.75s-.336.75-.75.75z"/><path d="m15.25 24h-6.5c-.304 0-.577-.183-.693-.463-.115-.28-.052-.603.163-.817 1.046-1.045 1.266-2.555 1.268-2.57.056-.409.428-.703.844-.641.409.055.697.43.643.84-.007.058-.147 1.065-.743 2.152h3.522c-.591-1.08-.737-2.088-.746-2.147-.057-.41.229-.789.64-.846.412-.056.788.229.846.638.007.043.232 1.469 1.186 2.489.193.135.32.36.32.615 0 .414-.336.75-.75.75z"/><path d="m18.25 12h-12.5c-.414 0-.75-.336-.75-.75v-10.5c0-.414.336-.75.75-.75h12.5c.414 0 .75.336.75.75v10.5c0 .414-.336.75-.75.75zm-11.75-1.5h11v-9h-11z"/><path d="m9.75 12c-.414 0-.75-.336-.75-.75v-10.5c0-.414.336-.75.75-.75s.75.336.75.75v10.5c0 .414-.336.75-.75.75z"/><path d="m18.25 6.75h-12.5c-.414 0-.75-.336-.75-.75s.336-.75.75-.75h12.5c.414 0 .75.336.75.75s-.336.75-.75.75z"/></svg>