<svg id="_x31__x2C_5" enable-background="new 0 0 24 24" height="512" viewBox="0 0 24 24" width="512" xmlns="http://www.w3.org/2000/svg"><path d="m11.75 11.5h-9.5c-1.241 0-2.25-1.009-2.25-2.25v-7c0-1.241 1.009-2.25 2.25-2.25h9.5c1.241 0 2.25 1.009 2.25 2.25v7c0 1.241-1.009 2.25-2.25 2.25zm-9.5-10c-.414 0-.75.336-.75.75v7c0 .414.336.75.75.75h9.5c.414 0 .75-.336.75-.75v-7c0-.414-.336-.75-.75-.75z"/><path d="m13.25 4.485h-12.5c-.414 0-.75-.336-.75-.75s.336-.75.75-.75h12.5c.414 0 .75.336.75.75s-.336.75-.75.75z"/><path d="m22.25 21h-20.5c-.965 0-1.75-.785-1.75-1.75v-5.76c0-.414.336-.75.75-.75s.75.336.75.75v5.76c0 .136.114.25.25.25h20.5c.136 0 .25-.114.25-.25v-13.5c0-.136-.114-.25-.25-.25h-6c-.414 0-.75-.336-.75-.75s.336-.75.75-.75h6c.965 0 1.75.785 1.75 1.75v13.5c0 .965-.785 1.75-1.75 1.75z"/><path d="m23.25 17.5h-22.5c-.414 0-.75-.336-.75-.75s.336-.75.75-.75h22.5c.414 0 .75.336.75.75s-.336.75-.75.75z"/><path d="m15.25 24h-6.5c-.303 0-.577-.183-.693-.463s-.052-.603.163-.817c1.041-1.041 1.265-2.552 1.267-2.567.055-.411.43-.701.841-.646.411.054.7.431.646.841-.008.059-.147 1.066-.744 2.152h3.523c-.591-1.081-.738-2.088-.746-2.147-.057-.41.229-.789.64-.846.412-.057.789.229.846.638.007.045.232 1.469 1.184 2.488.195.136.323.361.323.617 0 .414-.336.75-.75.75z"/><path d="m20.25 15c-.192 0-.384-.073-.53-.22l-3.25-3.25c-.293-.293-.293-.768 0-1.061s.768-.293 1.061 0l3.25 3.25c.293.293.293.768 0 1.061-.147.146-.339.22-.531.22z"/><path d="m16.75 14c-.414 0-.75-.336-.75-.75v-2.5c0-.414.336-.75.75-.75h2.5c.414 0 .75.336.75.75s-.336.75-.75.75h-1.75v1.75c0 .414-.336.75-.75.75z"/></svg>