<svg id="_x31__x2C_5" enable-background="new 0 0 24 24" height="512" viewBox="0 0 24 24" width="512" xmlns="http://www.w3.org/2000/svg"><path d="m23.25 17.5h-22.5c-.414 0-.75-.336-.75-.75s.336-.75.75-.75h22.5c.414 0 .75.336.75.75s-.336.75-.75.75z"/><path d="m15.25 24h-6.5c-.304 0-.577-.183-.693-.463-.115-.28-.052-.603.163-.817 1.046-1.046 1.266-2.555 1.268-2.57.056-.409.428-.69.844-.642.409.056.697.431.643.84-.007.059-.147 1.066-.743 2.152h3.522c-.591-1.08-.737-2.088-.746-2.146-.057-.41.229-.789.64-.847.412-.057.788.229.846.639.007.044.232 1.469 1.186 2.488.193.136.32.361.32.616 0 .414-.336.75-.75.75z"/><path d="m12 9c-1.654 0-3-1.346-3-3s1.346-3 3-3 3 1.346 3 3-1.346 3-3 3zm0-4.5c-.827 0-1.5.673-1.5 1.5s.673 1.5 1.5 1.5 1.5-.673 1.5-1.5-.673-1.5-1.5-1.5z"/><path d="m12 12c-3.559 0-6.887-2.104-8.901-5.628-.132-.23-.132-.514 0-.744 2.014-3.524 5.342-5.628 8.901-5.628s6.887 2.104 8.901 5.628c.132.23.132.514 0 .744-2.014 3.524-5.342 5.628-8.901 5.628zm-7.377-6c1.758 2.826 4.487 4.5 7.377 4.5s5.619-1.674 7.377-4.5c-1.758-2.826-4.487-4.5-7.377-4.5s-5.619 1.674-7.377 4.5z"/><path d="m22.25 21h-20.5c-.965 0-1.75-.785-1.75-1.75v-14.5c0-.414.336-.75.75-.75s.75.336.75.75v14.5c0 .136.114.25.25.25h20.5c.136 0 .25-.114.25-.25v-14.5c0-.414.336-.75.75-.75s.75.336.75.75v14.5c0 .965-.785 1.75-1.75 1.75z"/></svg>