<svg id="_x31__x2C_5" enable-background="new 0 0 24 24" height="512" viewBox="0 0 24 24" width="512" xmlns="http://www.w3.org/2000/svg"><path d="m19.25 15h-14.5c-.414 0-.75-.336-.75-.75s.336-.75.75-.75h14.5c.414 0 .75.336.75.75s-.336.75-.75.75z"/><path d="m19.25 18h-14.5c-.414 0-.75-.336-.75-.75s.336-.75.75-.75h14.5c.414 0 .75.336.75.75s-.336.75-.75.75z"/><path d="m16.25 21h-8.5c-.414 0-.75-.336-.75-.75s.336-.75.75-.75h8.5c.414 0 .75.336.75.75s-.336.75-.75.75z"/><path d="m21.25 24h-18.5c-1.517 0-2.75-1.233-2.75-2.75v-8.5c0-1.517 1.233-2.75 2.75-2.75h18.5c1.517 0 2.75 1.233 2.75 2.75v8.5c0 1.517-1.233 2.75-2.75 2.75zm-18.5-12.5c-.689 0-1.25.561-1.25 1.25v8.5c0 .689.561 1.25 1.25 1.25h18.5c.689 0 1.25-.561 1.25-1.25v-8.5c0-.689-.561-1.25-1.25-1.25z"/><path d="m12.25 11.5c-.414 0-.75-.336-.75-.75v-7.75c0-.827-.673-1.5-1.5-1.5s-1.5.673-1.5 1.5v1.75c0 1.792-1.458 3.25-3.25 3.25s-3.25-1.458-3.25-3.25v-4c0-.414.336-.75.75-.75s.75.336.75.75v4c0 .965.785 1.75 1.75 1.75s1.75-.785 1.75-1.75v-1.75c0-1.654 1.346-3 3-3s3 1.346 3 3v7.75c0 .414-.336.75-.75.75z"/></svg>