<svg id="_x31__x2C_5" enable-background="new 0 0 24 24" height="512" viewBox="0 0 24 24" width="512" xmlns="http://www.w3.org/2000/svg"><path d="m19.25 21h-1.5c-.965 0-1.75-.785-1.75-1.75v-4.5c0-.965.785-1.75 1.75-1.75h1.5c.965 0 1.75.785 1.75 1.75v4.5c0 .965-.785 1.75-1.75 1.75zm-1.5-6.5c-.138 0-.25.112-.25.25v4.5c0 .138.112.25.25.25h1.5c.138 0 .25-.112.25-.25v-4.5c0-.138-.112-.25-.25-.25z"/><path d="m12.25 21h-7.5c-.965 0-1.75-.785-1.75-1.75v-4.5c0-.965.785-1.75 1.75-1.75h7.5c.965 0 1.75.785 1.75 1.75v4.5c0 .965-.785 1.75-1.75 1.75zm-7.5-6.5c-.138 0-.25.112-.25.25v4.5c0 .138.112.25.25.25h7.5c.138 0 .25-.112.25-.25v-4.5c0-.138-.112-.25-.25-.25z"/><path d="m21.25 24h-18.5c-1.517 0-2.75-1.233-2.75-2.75v-8.5c0-1.517 1.233-2.75 2.75-2.75h18.5c1.517 0 2.75 1.233 2.75 2.75v8.5c0 1.517-1.233 2.75-2.75 2.75zm-18.5-12.5c-.689 0-1.25.561-1.25 1.25v8.5c0 .689.561 1.25 1.25 1.25h18.5c.689 0 1.25-.561 1.25-1.25v-8.5c0-.689-.561-1.25-1.25-1.25z"/><path d="m12.25 11.5c-.414 0-.75-.336-.75-.75v-7.75c0-.827-.673-1.5-1.5-1.5s-1.5.673-1.5 1.5v2.5c0 1.654-1.346 3-3 3h-.5c-1.654 0-3-1.346-3-3v-4.75c0-.414.336-.75.75-.75s.75.336.75.75v4.75c0 .827.673 1.5 1.5 1.5h.5c.827 0 1.5-.673 1.5-1.5v-2.5c0-1.654 1.346-3 3-3s3 1.346 3 3v7.75c0 .414-.336.75-.75.75z"/></svg>