<svg id="_x31__x2C_5" enable-background="new 0 0 24 24" height="512" viewBox="0 0 24 24" width="512" xmlns="http://www.w3.org/2000/svg"><path d="m18.75 16.5c-.173 0-.347-.059-.488-.181-.314-.27-.351-.743-.081-1.058l1.081-1.261-1.081-1.262c-.27-.314-.233-.788.081-1.058.314-.269.788-.234 1.058.081l1.5 1.75c.241.281.241.695 0 .977l-1.5 1.75c-.149.173-.359.262-.57.262z"/><path d="m20 14.75h-5.25c-.414 0-.75-.336-.75-.75s.336-.75.75-.75h5.25c.414 0 .75.336.75.75s-.336.75-.75.75z"/><path d="m11.25 14.75h-1.5c-.414 0-.75-.336-.75-.75s.336-.75.75-.75h1.5c.414 0 .75.336.75.75s-.336.75-.75.75z"/><path d="m10.25 20h-5.5c-.965 0-1.75-.785-1.75-1.75v-8.5c0-.965.785-1.75 1.75-1.75h5.5c.965 0 1.75.785 1.75 1.75v1.25c0 .414-.336.75-.75.75s-.75-.336-.75-.75v-1.25c0-.136-.114-.25-.25-.25h-5.5c-.136 0-.25.114-.25.25v8.5c0 .136.114.25.25.25h5.5c.136 0 .25-.114.25-.25v-1.25c0-.414.336-.75.75-.75s.75.336.75.75v1.25c0 .965-.785 1.75-1.75 1.75z"/><path d="m21.25 23h-18.5c-1.517 0-2.75-1.233-2.75-2.75v-16.5c0-1.517 1.233-2.75 2.75-2.75h18.5c1.517 0 2.75 1.233 2.75 2.75v16.5c0 1.517-1.233 2.75-2.75 2.75zm-18.5-20.5c-.689 0-1.25.561-1.25 1.25v16.5c0 .689.561 1.25 1.25 1.25h18.5c.689 0 1.25-.561 1.25-1.25v-16.5c0-.689-.561-1.25-1.25-1.25z"/><path d="m23.25 6h-22.5c-.414 0-.75-.336-.75-.75s.336-.75.75-.75h22.5c.414 0 .75.336.75.75s-.336.75-.75.75z"/></svg>