<svg id="_x31__x2C_5" enable-background="new 0 0 24 24" height="512" viewBox="0 0 24 24" width="512" xmlns="http://www.w3.org/2000/svg"><path d="m18.25 20c-.192 0-.384-.073-.53-.22l-3.25-3.25c-.293-.293-.293-.768 0-1.061s.768-.293 1.061 0l3.25 3.25c.293.293.293.768 0 1.061-.147.146-.339.22-.531.22z"/><path d="m14.75 19c-.414 0-.75-.336-.75-.75v-2.5c0-.414.336-.75.75-.75h2.5c.414 0 .75.336.75.75s-.336.75-.75.75h-1.75v1.75c0 .414-.336.75-.75.75z"/><path d="m23.25 23h-22.5c-.414 0-.75-.336-.75-.75s.336-.75.75-.75h22.5c.414 0 .75.336.75.75s-.336.75-.75.75z"/><path d="m21.25 23c-.414 0-.75-.336-.75-.75v-11.5c0-.136-.114-.25-.25-.25h-4c-.414 0-.75-.336-.75-.75s.336-.75.75-.75h4c.965 0 1.75.785 1.75 1.75v11.5c0 .414-.336.75-.75.75z"/><path d="m2.75 23c-.414 0-.75-.336-.75-.75v-7c0-.414.336-.75.75-.75s.75.336.75.75v7c0 .414-.336.75-.75.75z"/><path d="m11.75 13h-9.5c-1.241 0-2.25-1.009-2.25-2.25v-7c0-1.241 1.009-2.25 2.25-2.25h9.5c1.241 0 2.25 1.009 2.25 2.25v7c0 1.241-1.009 2.25-2.25 2.25zm-9.5-10c-.414 0-.75.336-.75.75v7c0 .414.336.75.75.75h9.5c.414 0 .75-.336.75-.75v-7c0-.414-.336-.75-.75-.75z"/><path d="m13.25 5.985h-12.5c-.414 0-.75-.336-.75-.75s.336-.75.75-.75h12.5c.414 0 .75.336.75.75s-.336.75-.75.75z"/></svg>