<svg id="_x31__x2C_5" enable-background="new 0 0 24 24" height="512" viewBox="0 0 24 24" width="512" xmlns="http://www.w3.org/2000/svg"><path d="m13.25 24h-2c-2.619 0-4.75-2.131-4.75-4.75v-7.5c0-1.517 1.233-2.75 2.75-2.75h6c1.517 0 2.75 1.233 2.75 2.75v7.5c0 2.619-2.131 4.75-4.75 4.75zm-4-13.5c-.689 0-1.25.561-1.25 1.25v7.5c0 1.792 1.458 3.25 3.25 3.25h2c1.792 0 3.25-1.458 3.25-3.25v-7.5c0-.689-.561-1.25-1.25-1.25z"/><path d="m12.25 16.5c-.414 0-.75-.336-.75-.75v-6c0-.414.336-.75.75-.75s.75.336.75.75v6c0 .414-.336.75-.75.75z"/><path d="m17.25 16.5h-10c-.414 0-.75-.336-.75-.75s.336-.75.75-.75h10c.414 0 .75.336.75.75s-.336.75-.75.75z"/><path d="m12.25 11.5c-.414 0-.75-.336-.75-.75v-7.75c0-.827-.673-1.5-1.5-1.5s-1.5.673-1.5 1.5v2.5c0 1.654-1.346 3-3 3h-.5c-1.654 0-3-1.346-3-3v-4.75c0-.414.336-.75.75-.75s.75.336.75.75v4.75c0 .827.673 1.5 1.5 1.5h.5c.827 0 1.5-.673 1.5-1.5v-2.5c0-1.654 1.346-3 3-3s3 1.346 3 3v7.75c0 .414-.336.75-.75.75z"/></svg>