<svg id="_x31__x2C_5" enable-background="new 0 0 24 24" height="512" viewBox="0 0 24 24" width="512" xmlns="http://www.w3.org/2000/svg"><path d="m11.09 22h-8.34c-1.516 0-2.75-1.233-2.75-2.75v-3c0-1.517 1.234-2.75 2.75-2.75h8.83c.414 0 .75.336.75.75s-.336.75-.75.75h-8.83c-.689 0-1.25.561-1.25 1.25v3c0 .689.561 1.25 1.25 1.25h8.34c.414 0 .75.336.75.75s-.336.75-.75.75z"/><path d="m11.58 15h-8.83c-1.517 0-2.75-1.233-2.75-2.75v-2.5c0-1.517 1.233-2.75 2.75-2.75h18.5c1.517 0 2.75 1.233 2.75 2.75v2.52c0 .414-.336.75-.75.75s-.75-.336-.75-.75v-2.52c0-.689-.561-1.25-1.25-1.25h-18.5c-.689 0-1.25.561-1.25 1.25v2.5c0 .689.561 1.25 1.25 1.25h8.83c.414 0 .75.336.75.75s-.336.75-.75.75z"/><path d="m21.25 8.5h-18.5c-1.517 0-2.75-1.233-2.75-2.75v-3c0-1.517 1.233-2.75 2.75-2.75h18.5c1.517 0 2.75 1.233 2.75 2.75v3c0 1.517-1.233 2.75-2.75 2.75zm-18.5-7c-.689 0-1.25.561-1.25 1.25v3c0 .689.561 1.25 1.25 1.25h18.5c.689 0 1.25-.561 1.25-1.25v-3c0-.689-.561-1.25-1.25-1.25z"/><path d="m6.75 22c-.414 0-.75-.336-.75-.75v-20.5c0-.414.336-.75.75-.75s.75.336.75.75v20.5c0 .414-.336.75-.75.75z"/><path d="m18.5 24c-3.033 0-5.5-2.467-5.5-5.5s2.467-5.5 5.5-5.5 5.5 2.467 5.5 5.5-2.467 5.5-5.5 5.5zm0-9.5c-2.206 0-4 1.794-4 4s1.794 4 4 4 4-1.794 4-4-1.794-4-4-4z"/><path d="m18.5 21c-.414 0-.75-.336-.75-.75v-3.5c0-.414.336-.75.75-.75s.75.336.75.75v3.5c0 .414-.336.75-.75.75z"/><path d="m20.25 19.25h-3.5c-.414 0-.75-.336-.75-.75s.336-.75.75-.75h3.5c.414 0 .75.336.75.75s-.336.75-.75.75z"/></svg>