<svg id="_x31__x2C_5" enable-background="new 0 0 24 24" height="512" viewBox="0 0 24 24" width="512" xmlns="http://www.w3.org/2000/svg"><path d="m3.5 22h-2.75c-.414 0-.75-.336-.75-.75v-8.5c0-.414.336-.75.75-.75 3.505 0 5.138 1.216 5.205 1.268.242.185.349.498.269.792l-2 7.386c-.089.327-.385.554-.724.554zm-2-1.5h1.426l1.698-6.271c-.523-.247-1.546-.615-3.125-.707v6.978z"/><path d="m13 24c-2.257 0-6.422-1.729-9.519-3.181-.375-.176-.537-.623-.361-.998.175-.375.62-.538.998-.361 4.122 1.932 7.359 3.04 8.882 3.04 2.028 0 6.632-2.191 9.044-3.455-.278-.159-.692-.295-1.294-.295-.878 0-1.963.362-3.013.711-1.163.388-2.366.789-3.487.789-2.108 0-4.889-1.002-5.006-1.045-.389-.142-.59-.572-.448-.961.141-.39.572-.587.96-.449.026.01 2.652.955 4.494.955.878 0 1.963-.362 3.013-.711 1.163-.388 2.366-.789 3.487-.789 2.479 0 3.168 1.651 3.196 1.722.141.351-.002.752-.334.935-.302.167-7.455 4.093-10.612 4.093z"/><path d="m16.5 19.84c-.414 0-.75-.336-.75-.75v-.45c0-.591-.42-1.107-1-1.225l-9.63-1.97c-.406-.083-.667-.479-.584-.885s.48-.665.885-.584l9.63 1.97c1.274.26 2.2 1.394 2.2 2.695v.45c-.001.413-.337.749-.751.749z"/><path d="m23.25 15.97c-.414 0-.75-.336-.75-.75v-12.47c0-.689-.561-1.25-1.25-1.25h-18.5c-.689 0-1.25.561-1.25 1.25v6.5c0 .414-.336.75-.75.75s-.75-.336-.75-.75v-6.5c0-1.517 1.233-2.75 2.75-2.75h18.5c1.517 0 2.75 1.233 2.75 2.75v12.47c0 .414-.336.75-.75.75z"/><path d="m23.25 5h-22.5c-.414 0-.75-.336-.75-.75s.336-.75.75-.75h22.5c.414 0 .75.336.75.75s-.336.75-.75.75z"/></svg>