<svg id="_x31__x2C_5" enable-background="new 0 0 24 24" height="512" viewBox="0 0 24 24" width="512" xmlns="http://www.w3.org/2000/svg"><path d="m23.25 7.5h-22.5c-.414 0-.75-.336-.75-.75v-4c0-1.517 1.233-2.75 2.75-2.75h18.5c1.517 0 2.75 1.233 2.75 2.75v4c0 .414-.336.75-.75.75zm-21.75-1.5h21v-3.25c0-.689-.561-1.25-1.25-1.25h-18.5c-.689 0-1.25.561-1.25 1.25z"/><path d="m23.25 13h-22.5c-.414 0-.75-.336-.75-.75v-5.5c0-.414.336-.75.75-.75h22.5c.414 0 .75.336.75.75v5.5c0 .414-.336.75-.75.75zm-21.75-1.5h21v-4h-21z"/><path d="m21.25 19h-18.5c-1.517 0-2.75-1.233-2.75-2.75v-4c0-.414.336-.75.75-.75h22.5c.414 0 .75.336.75.75v4c0 1.517-1.233 2.75-2.75 2.75zm-19.75-6v3.25c0 .689.561 1.25 1.25 1.25h18.5c.689 0 1.25-.561 1.25-1.25v-3.25z"/><path d="m15.25 24h-6.5c-1.517 0-2.75-1.233-2.75-2.75v-3c0-.414.336-.75.75-.75s.75.336.75.75v3c0 .689.561 1.25 1.25 1.25h6.5c.689 0 1.25-.561 1.25-1.25v-3c0-.414.336-.75.75-.75s.75.336.75.75v3c0 1.517-1.233 2.75-2.75 2.75z"/><path d="m12 21.019c-.414 0-.75-.336-.75-.75v-2.019c0-.414.336-.75.75-.75s.75.336.75.75v2.019c0 .414-.336.75-.75.75z"/></svg>