<svg id="_x31__x2C_5" enable-background="new 0 0 24 24" height="512" viewBox="0 0 24 24" width="512" xmlns="http://www.w3.org/2000/svg"><path d="m21.749 15c-.143 0-.287-.041-.415-.126-.345-.23-.438-.695-.208-1.04l1.223-1.834-1.223-1.834c-.229-.345-.137-.81.208-1.04s.811-.137 1.04.208l1.5 2.25c.168.252.168.58 0 .832l-1.5 2.25c-.145.217-.383.334-.625.334z"/><path d="m2.251 15c-.242 0-.48-.117-.625-.334l-1.5-2.25c-.168-.252-.168-.58 0-.832l1.5-2.25c.23-.345.695-.438 1.04-.208s.438.695.208 1.04l-1.223 1.834 1.223 1.834c.229.345.137.81-.208 1.04-.128.085-.272.126-.415.126z"/><path d="m16.25 22h-8.5c-1.517 0-2.75-1.233-2.75-2.75v-14.5c0-1.517 1.233-2.75 2.75-2.75h8.5c1.517 0 2.75 1.233 2.75 2.75v14.5c0 1.517-1.233 2.75-2.75 2.75zm-8.5-18.5c-.689 0-1.25.561-1.25 1.25v14.5c0 .689.561 1.25 1.25 1.25h8.5c.689 0 1.25-.561 1.25-1.25v-14.5c0-.689-.561-1.25-1.25-1.25z"/></svg>