<svg id="_x31__x2C_5" enable-background="new 0 0 24 24" height="512" viewBox="0 0 24 24" width="512" xmlns="http://www.w3.org/2000/svg"><path d="m12 24c-.146 0-.29-.042-.416-.126l-2.25-1.5c-.345-.23-.438-.695-.208-1.04.229-.344.695-.438 1.04-.208l1.834 1.223 1.834-1.223c.345-.23.811-.136 1.04.208.229.345.137.81-.208 1.04l-2.25 1.5c-.126.084-.27.126-.416.126z"/><path d="m14.249 3c-.143 0-.287-.041-.415-.126l-1.834-1.223-1.834 1.223c-.345.23-.811.136-1.04-.208-.229-.345-.137-.81.208-1.04l2.25-1.5c.252-.168.58-.168.832 0l2.25 1.5c.345.23.438.695.208 1.04-.145.217-.383.334-.625.334z"/><path d="m19.25 19h-14.5c-1.517 0-2.75-1.233-2.75-2.75v-8.5c0-1.517 1.233-2.75 2.75-2.75h14.5c1.517 0 2.75 1.233 2.75 2.75v8.5c0 1.517-1.233 2.75-2.75 2.75zm-14.5-12.5c-.689 0-1.25.561-1.25 1.25v8.5c0 .689.561 1.25 1.25 1.25h14.5c.689 0 1.25-.561 1.25-1.25v-8.5c0-.689-.561-1.25-1.25-1.25z"/></svg>