<svg id="_x31__x2C_5" enable-background="new 0 0 24 24" height="512" viewBox="0 0 24 24" width="512" xmlns="http://www.w3.org/2000/svg"><path d="m11.25 22h-8.5c-1.517 0-2.75-1.233-2.75-2.75v-16.5c0-1.517 1.233-2.75 2.75-2.75h18.5c1.517 0 2.75 1.233 2.75 2.75v9.49c0 .414-.336.75-.75.75s-.75-.336-.75-.75v-9.49c0-.689-.561-1.25-1.25-1.25h-18.5c-.689 0-1.25.561-1.25 1.25v16.5c0 .689.561 1.25 1.25 1.25h8.5c.414 0 .75.336.75.75s-.336.75-.75.75z"/><path d="m23.25 5h-22.5c-.414 0-.75-.336-.75-.75s.336-.75.75-.75h22.5c.414 0 .75.336.75.75s-.336.75-.75.75z"/><path d="m19 22c-1.93 0-3.5-1.57-3.5-3.5s1.57-3.5 3.5-3.5 3.5 1.57 3.5 3.5-1.57 3.5-3.5 3.5zm0-5.5c-1.103 0-2 .897-2 2s.897 2 2 2 2-.897 2-2-.897-2-2-2z"/><path d="m19 24c-.414 0-.75-.336-.75-.75v-2c0-.414.336-.75.75-.75s.75.336.75.75v2c0 .414-.336.75-.75.75z"/><path d="m19 16.5c-.414 0-.75-.336-.75-.75v-2c0-.414.336-.75.75-.75s.75.336.75.75v2c0 .414-.336.75-.75.75z"/><path d="m21.381 17.88c-.269 0-.527-.144-.662-.396-.195-.365-.058-.819.308-1.015l1.87-1c.366-.197.82-.057 1.015.308s.058.819-.308 1.015l-1.87 1c-.113.06-.234.088-.353.088z"/><path d="m14.751 21.62c-.269 0-.527-.144-.662-.396-.195-.365-.058-.819.308-1.015l1.87-1c.365-.197.82-.057 1.015.308s.058.819-.308 1.015l-1.87 1c-.113.06-.234.088-.353.088z"/><path d="m16.619 17.88c-.119 0-.24-.028-.353-.089l-1.87-1c-.365-.195-.503-.649-.308-1.015.194-.365.648-.505 1.015-.308l1.87 1c.365.195.503.649.308 1.015-.135.253-.393.397-.662.397z"/><path d="m23.249 21.62c-.119 0-.24-.028-.353-.089l-1.87-1c-.365-.195-.503-.649-.308-1.015s.649-.505 1.015-.308l1.87 1c.365.195.503.649.308 1.015-.135.254-.393.397-.662.397z"/><path d="m11.36 16h-4.56c-1.544 0-2.8-1.211-2.8-2.7 0-1.303.962-2.393 2.236-2.646.505-1.548 2.027-2.654 3.764-2.654 1.369 0 2.643.691 3.354 1.792 1.412.261 2.513 1.408 2.633 2.814.035.412-.271.775-.684.811-.411.039-.775-.271-.811-.684-.068-.804-.775-1.446-1.646-1.494-.27-.016-.511-.174-.63-.416-.396-.803-1.267-1.323-2.216-1.323-1.212 0-2.251.843-2.418 1.961-.056.367-.371.639-.742.639-.757 0-1.34.538-1.34 1.2s.583 1.2 1.3 1.2h4.561c.414 0 .75.336.75.75s-.337.75-.751.75z"/></svg>