<svg id="_x31__x2C_5" enable-background="new 0 0 24 24" height="512" viewBox="0 0 24 24" width="512" xmlns="http://www.w3.org/2000/svg"><path d="m3.93 20.82c-.103 0-.207-.021-.307-.066-.986-.443-1.623-1.426-1.623-2.504v-11.5c0-1.516 1.233-2.75 2.75-2.75h14.25c.414 0 .75.336.75.75s-.336.75-.75.75h-14.25c-.689 0-1.25.561-1.25 1.25v11.5c0 .489.29.935.738 1.136.377.17.546.614.376.992-.125.277-.398.442-.684.442z"/><path d="m19.25 21h-10.9c-.414 0-.75-.336-.75-.75s.336-.75.75-.75h10.9c.689 0 1.25-.561 1.25-1.25v-10.9c0-.414.336-.75.75-.75s.75.336.75.75v10.9c0 1.516-1.234 2.75-2.75 2.75z"/><path d="m21.25 9h-.9c-.414 0-.75-.336-.75-.75s.336-.75.75-.75h.9c.414 0 .75.336.75.75s-.336.75-.75.75z"/><path d="m15.5 9h-12.75c-.414 0-.75-.336-.75-.75s.336-.75.75-.75h12.75c.414 0 .75.336.75.75s-.336.75-.75.75z"/><path d="m.75 24c-.192 0-.384-.073-.53-.22-.293-.293-.293-.768 0-1.061l22.5-22.5c.293-.293.768-.293 1.061 0s.293.768 0 1.061l-22.5 22.5c-.147.147-.339.22-.531.22z"/></svg>