<svg id="_x31__x2C_5" enable-background="new 0 0 24 24" height="512" viewBox="0 0 24 24" width="512" xmlns="http://www.w3.org/2000/svg"><path d="m6.25 18h-3.5c-1.517 0-2.75-1.233-2.75-2.75v-12.5c0-1.517 1.233-2.75 2.75-2.75h5c.199 0 .39.079.53.22l1.781 1.78h11.189c1.517 0 2.75 1.233 2.75 2.75v3.51c0 .414-.336.75-.75.75s-.75-.336-.75-.75v-3.51c0-.689-.561-1.25-1.25-1.25h-11.5c-.199 0-.39-.079-.53-.22l-1.781-1.78h-4.689c-.689 0-1.25.561-1.25 1.25v12.5c0 .689.561 1.25 1.25 1.25h3.5c.414 0 .75.336.75.75s-.336.75-.75.75z"/><path d="m21.75 24h-10.5c-1.24 0-2.25-1.009-2.25-2.25v-8.5c0-1.241 1.01-2.25 2.25-2.25h10.5c1.24 0 2.25 1.009 2.25 2.25v8.5c0 1.241-1.01 2.25-2.25 2.25zm-10.5-11.5c-.413 0-.75.336-.75.75v8.5c0 .414.337.75.75.75h10.5c.413 0 .75-.336.75-.75v-8.5c0-.414-.337-.75-.75-.75z"/><path d="m23.25 15.5h-13.5c-.414 0-.75-.336-.75-.75s.336-.75.75-.75h13.5c.414 0 .75.336.75.75s-.336.75-.75.75z"/></svg>