<svg id="_x31__x2C_5" enable-background="new 0 0 24 24" height="512" viewBox="0 0 24 24" width="512" xmlns="http://www.w3.org/2000/svg"><path d="m21.75 13h-10.5c-1.24 0-2.25-1.009-2.25-2.25v-8.5c0-1.241 1.01-2.25 2.25-2.25h10.5c1.24 0 2.25 1.009 2.25 2.25v8.5c0 1.241-1.01 2.25-2.25 2.25zm-10.5-11.5c-.413 0-.75.336-.75.75v8.5c0 .414.337.75.75.75h10.5c.413 0 .75-.336.75-.75v-8.5c0-.414-.337-.75-.75-.75z"/><path d="m23.25 4.5h-13.5c-.414 0-.75-.336-.75-.75s.336-.75.75-.75h13.5c.414 0 .75.336.75.75s-.336.75-.75.75z"/><path d="m11.75 24h-5.5c-1.24 0-2.25-1.009-2.25-2.25v-2.27c0-1.631-.619-3.234-1.743-4.515-1.455-1.647-2.257-3.766-2.257-5.965 0-3.961 2.647-7.51 6.438-8.629.402-.118.814.109.932.506.117.397-.11.814-.507.932-3.158.933-5.363 3.89-5.363 7.191 0 1.833.669 3.6 1.883 4.974 1.365 1.556 2.117 3.511 2.117 5.506v2.27c0 .414.337.75.75.75h5.5c.413 0 .75-.336.75-.75v-2.27c0-1.531.444-3.046 1.285-4.38.222-.351.683-.456 1.035-.234.35.221.455.684.234 1.034-.69 1.094-1.054 2.332-1.054 3.58v2.27c0 1.241-1.01 2.25-2.25 2.25z"/><path d="m13.25 20h-8.5c-.414 0-.75-.336-.75-.75s.336-.75.75-.75h8.5c.414 0 .75.336.75.75s-.336.75-.75.75z"/></svg>