<svg id="_x31__x2C_5" enable-background="new 0 0 24 24" height="512" viewBox="0 0 24 24" width="512" xmlns="http://www.w3.org/2000/svg"><path d="m14.75 20h-5.5c-.965 0-1.75-.785-1.75-1.75v-8.5c0-.965.785-1.75 1.75-1.75h5.5c.965 0 1.75.785 1.75 1.75v8.5c0 .965-.785 1.75-1.75 1.75zm-5.5-10.5c-.138 0-.25.112-.25.25v8.5c0 .138.112.25.25.25h5.5c.138 0 .25-.112.25-.25v-8.5c0-.138-.112-.25-.25-.25z"/><path d="m5.251 17c-.242 0-.48-.117-.625-.334l-1.5-2.25c-.168-.252-.168-.58 0-.832l1.5-2.25c.229-.344.694-.438 1.04-.208.345.23.438.695.208 1.04l-1.223 1.834 1.223 1.834c.229.345.137.81-.208 1.04-.128.085-.272.126-.415.126z"/><path d="m18.749 17c-.143 0-.287-.041-.415-.126-.345-.23-.438-.695-.208-1.04l1.223-1.834-1.223-1.834c-.229-.345-.137-.81.208-1.04s.81-.136 1.04.208l1.5 2.25c.168.252.168.58 0 .832l-1.5 2.25c-.145.217-.383.334-.625.334z"/><path d="m21.25 23h-18.5c-1.517 0-2.75-1.233-2.75-2.75v-16.5c0-1.517 1.233-2.75 2.75-2.75h18.5c1.517 0 2.75 1.233 2.75 2.75v16.5c0 1.517-1.233 2.75-2.75 2.75zm-18.5-20.5c-.689 0-1.25.561-1.25 1.25v16.5c0 .689.561 1.25 1.25 1.25h18.5c.689 0 1.25-.561 1.25-1.25v-16.5c0-.689-.561-1.25-1.25-1.25z"/><path d="m23.25 6h-22.5c-.414 0-.75-.336-.75-.75s.336-.75.75-.75h22.5c.414 0 .75.336.75.75s-.336.75-.75.75z"/></svg>