<svg id="_x31__x2C_5" enable-background="new 0 0 24 24" height="512" viewBox="0 0 24 24" width="512" xmlns="http://www.w3.org/2000/svg"><path d="m15.25 16.5h-6.5c-.965 0-1.75-.785-1.75-1.75v-3c0-.965.785-1.75 1.75-1.75h6.5c.965 0 1.75.785 1.75 1.75v3c0 .965-.785 1.75-1.75 1.75zm-6.5-5c-.138 0-.25.112-.25.25v3c0 .138.112.25.25.25h6.5c.138 0 .25-.112.25-.25v-3c0-.138-.112-.25-.25-.25z"/><path d="m13.25 9.5c-.164 0-.33-.054-.468-.164l-.782-.625-.781.625c-.324.259-.795.205-1.054-.117-.259-.323-.207-.796.117-1.055l1.25-1c.274-.219.663-.219.938 0l1.25 1c.323.259.375.731.117 1.055-.149.184-.367.281-.587.281z"/><path d="m12 20c-.166 0-.332-.055-.469-.164l-1.25-1c-.323-.259-.375-.731-.117-1.055.258-.322.73-.376 1.054-.117l.782.625.781-.625c.326-.258.796-.204 1.054.117.259.323.207.796-.117 1.055l-1.25 1c-.136.109-.302.164-.468.164z"/><path d="m21.25 23h-18.5c-1.517 0-2.75-1.233-2.75-2.75v-16.5c0-1.517 1.233-2.75 2.75-2.75h18.5c1.517 0 2.75 1.233 2.75 2.75v16.5c0 1.517-1.233 2.75-2.75 2.75zm-18.5-20.5c-.689 0-1.25.561-1.25 1.25v16.5c0 .689.561 1.25 1.25 1.25h18.5c.689 0 1.25-.561 1.25-1.25v-16.5c0-.689-.561-1.25-1.25-1.25z"/><path d="m23.25 6h-22.5c-.414 0-.75-.336-.75-.75s.336-.75.75-.75h22.5c.414 0 .75.336.75.75s-.336.75-.75.75z"/></svg>