<svg id="_x31__x2C_5" enable-background="new 0 0 24 24" height="512" viewBox="0 0 24 24" width="512" xmlns="http://www.w3.org/2000/svg"><path d="m11.75 11.5h-9.5c-1.24 0-2.25-1.009-2.25-2.25v-7c0-1.241 1.01-2.25 2.25-2.25h9.5c1.24 0 2.25 1.009 2.25 2.25v7c0 1.241-1.01 2.25-2.25 2.25zm-9.5-10c-.413 0-.75.336-.75.75v7c0 .414.337.75.75.75h9.5c.413 0 .75-.336.75-.75v-7c0-.414-.337-.75-.75-.75z"/><path d="m13.25 4.5h-12.5c-.414 0-.75-.336-.75-.75s.336-.75.75-.75h12.5c.414 0 .75.336.75.75s-.336.75-.75.75z"/><path d="m20 16.75c-.192 0-.384-.073-.53-.22l-3.25-3.25c-.293-.293-.293-.768 0-1.061s.768-.293 1.061 0l3.25 3.25c.293.293.293.768 0 1.061-.147.146-.339.22-.531.22z"/><path d="m20.25 17h-2.5c-.414 0-.75-.336-.75-.75s.336-.75.75-.75h1.75v-1.75c0-.414.336-.75.75-.75s.75.336.75.75v2.5c0 .414-.336.75-.75.75z"/><path d="m22.25 20h-20.5c-.965 0-1.75-.785-1.75-1.75v-4.76c0-.414.336-.75.75-.75s.75.336.75.75v4.76c0 .136.114.25.25.25h20.5c.136 0 .25-.114.25-.25v-12.5c0-.136-.114-.25-.25-.25h-6c-.414 0-.75-.336-.75-.75s.336-.75.75-.75h6c.965 0 1.75.785 1.75 1.75v12.5c0 .965-.785 1.75-1.75 1.75z"/><path d="m16.25 24h-8.5c-.414 0-.75-.336-.75-.75s.336-.75.75-.75h8.5c.414 0 .75.336.75.75s-.336.75-.75.75z"/><path d="m12 24c-.414 0-.75-.336-.75-.75v-4c0-.414.336-.75.75-.75s.75.336.75.75v4c0 .414-.336.75-.75.75z"/></svg>