<svg id="_x31__x2C_5" enable-background="new 0 0 24 24" height="512" viewBox="0 0 24 24" width="512" xmlns="http://www.w3.org/2000/svg"><path d="m6.75 9.5h-2.5c-.965 0-1.75-.785-1.75-1.75 0-.138-.112-.25-.25-.25-.414 0-.75-.336-.75-.75s.336-.75.75-.75c.965 0 1.75.785 1.75 1.75 0 .138.112.25.25.25h2.5c.138 0 .25-.112.25-.25 0-.965.785-1.75 1.75-1.75.414 0 .75.336.75.75s-.336.75-.75.75c-.138 0-.25.112-.25.25 0 .965-.785 1.75-1.75 1.75z"/><path d="m8.75 24h-6.5c-1.24 0-2.25-1.009-2.25-2.25v-13.5c0-1.241 1.01-2.25 2.25-2.25h6.5c1.24 0 2.25 1.009 2.25 2.25v13.5c0 1.241-1.01 2.25-2.25 2.25zm-6.5-16.5c-.413 0-.75.336-.75.75v13.5c0 .414.337.75.75.75h6.5c.413 0 .75-.336.75-.75v-13.5c0-.414-.337-.75-.75-.75z"/><path d="m15.25 14.5c-.192 0-.384-.073-.53-.22-.293-.293-.293-.768 0-1.061l3.25-3.25c.293-.293.768-.293 1.061 0s.293.768 0 1.061l-3.25 3.25c-.147.147-.339.22-.531.22z"/><path d="m17.25 15h-2.5c-.414 0-.75-.336-.75-.75v-2.5c0-.414.336-.75.75-.75s.75.336.75.75v1.75h1.75c.414 0 .75.336.75.75s-.336.75-.75.75z"/><path d="m21.25 22h-8c-.414 0-.75-.336-.75-.75s.336-.75.75-.75h8c.689 0 1.25-.561 1.25-1.25v-16.5c0-.689-.561-1.25-1.25-1.25h-18.5c-.689 0-1.25.561-1.25 1.25v1.28c0 .414-.336.75-.75.75s-.75-.336-.75-.75v-1.28c0-1.517 1.233-2.75 2.75-2.75h18.5c1.517 0 2.75 1.233 2.75 2.75v16.5c0 1.517-1.233 2.75-2.75 2.75z"/><path d="m23.25 5h-12.48c-.414 0-.75-.336-.75-.75s.336-.75.75-.75h12.48c.414 0 .75.336.75.75s-.336.75-.75.75z"/></svg>